Coordinates
version=1
nRows=14
nColumns=63
inDegrees=yes

Units are S.I. units (second, meters, Newtons, ...)
If the header above contains a line with 'inDegrees', this indicates whether rotational values are in degrees (yes) or radians (no).

endheader
time	pelvis_tilt	pelvis_list	pelvis_rotation	pelvis_tx	pelvis_ty	pelvis_tz	hip_flexion_r	hip_adduction_r	hip_rotation_r	knee_angle_r	knee_angle_r_beta	ankle_angle_r	subtalar_angle_r	mtp_angle_r	hip_flexion_l	hip_adduction_l	hip_rotation_l	knee_angle_l	knee_angle_l_beta	ankle_angle_l	subtalar_angle_l	mtp_angle_l	L5_S1_Flex_Ext	L5_S1_Lat_Bending	L5_S1_axial_rotation	L4_L5_Flex_Ext	L4_L5_Lat_Bending	L4_L5_axial_rotation	L3_L4_Flex_Ext	L3_L4_Lat_Bending	L3_L4_axial_rotation	L2_L3_Flex_Ext	L2_L3_Lat_Bending	L2_L3_axial_rotation	L1_L2_Flex_Ext	L1_L2_Lat_Bending	L1_L2_axial_rotation	L1_T12_Flex_Ext	L1_T12_Lat_Bending	L1_T12_axial_rotation	Abs_r3	Abs_r2	Abs_r1	Abs_t1	Abs_t2	neck_flexion	neck_bending	neck_rotation	arm_flex_r	arm_add_r	arm_rot_r	elbow_flex_r	pro_sup_r	wrist_flex_r	wrist_dev_r	arm_flex_l	arm_add_l	arm_rot_l	elbow_flex_l	pro_sup_l	wrist_flex_l	wrist_dev_l
4.590909	3.662010	-4.160626	105.896241	0.142945	0.974168	0.565284	3.480261	-4.783067	-12.457920	19.737279	0.344481	33.046337	2.505993	0.000000	4.863613	1.981513	-2.757946	18.388195	0.320935	32.233323	14.902651	0.000000	-0.059800	0.678889	0.082887	-0.111055	0.902922	0.088068	-0.098246	1.650650	0.088068	-0.068346	1.650650	0.072526	-0.055531	1.384390	0.067346	-0.034170	1.051599	0.062166	-0.427147	7.679724	0.460995	0.000000	0.000000	5.407188	-5.014248	-14.264456	35.481171	-31.843447	-35.633824	58.154824	56.223097	-5.761944	7.659657	-8.439914	-24.981740	20.469128	77.627772	88.969908	-1.660711	12.619186
4.613636	3.794657	-4.123495	106.199747	0.143690	0.974941	0.566473	3.419723	-4.624990	-13.053209	19.610928	0.342275	32.884652	2.825075	0.000000	4.831547	1.811568	-2.448744	18.135419	0.316523	32.021662	15.022503	0.000000	-0.076477	0.668250	-0.068995	-0.142025	0.888773	-0.073307	-0.125644	1.624784	-0.073307	-0.087405	1.624784	-0.060371	-0.071016	1.362696	-0.056058	-0.043699	1.035120	-0.051746	-0.546267	7.559381	-0.383729	0.000000	0.000000	5.797960	-5.037586	-13.948964	37.275761	-31.999210	-33.621071	56.065429	60.866903	-6.587798	10.362540	-8.918290	-24.777483	19.661193	77.394656	88.943745	-0.689930	13.426372
4.636364	3.920894	-4.080141	106.397348	0.144429	0.975637	0.567784	3.433060	-4.491667	-13.551420	19.589220	0.341896	32.769238	3.171247	0.000000	4.827032	1.651397	-2.203825	17.944010	0.313182	31.819472	15.089159	0.000000	-0.089716	0.663324	-0.210354	-0.166612	0.882221	-0.223502	-0.147395	1.612807	-0.223502	-0.102537	1.612807	-0.184060	-0.083310	1.352651	-0.170913	-0.051264	1.027490	-0.157766	-0.640833	7.503659	-1.169928	0.000000	0.000000	6.045933	-4.898745	-13.402988	38.876188	-31.964308	-31.720680	54.450686	64.708708	-7.482129	13.000820	-9.385831	-24.492768	18.884183	77.115656	88.873791	0.509370	14.397543
4.659091	4.047334	-4.028525	106.493483	0.145130	0.976262	0.569108	3.502756	-4.375277	-13.956153	19.651369	0.342981	32.693965	3.543393	0.000000	4.836058	1.494664	-2.024876	17.805504	0.310765	31.636346	15.111701	0.000000	-0.099326	0.665141	-0.336102	-0.184459	0.884637	-0.357108	-0.163183	1.617223	-0.357108	-0.113520	1.617223	-0.294089	-0.092234	1.356355	-0.273083	-0.056755	1.030303	-0.252077	-0.709478	7.524203	-1.869299	0.000000	0.000000	6.212428	-4.662512	-12.638240	40.247651	-31.760280	-29.912103	53.321399	67.218982	-8.184204	15.258129	-9.839574	-24.118926	18.145970	76.807266	88.748975	1.868042	15.442557
4.681818	4.166393	-3.983857	106.523311	0.145784	0.976812	0.570347	3.622653	-4.283457	-14.287805	19.782208	0.345265	32.651233	3.918881	0.000000	4.853871	1.351834	-1.890469	17.693304	0.308806	31.467088	15.112388	0.000000	-0.104158	0.671262	-0.445705	-0.193431	0.892779	-0.473561	-0.171120	1.632107	-0.473561	-0.119042	1.632107	-0.389992	-0.096721	1.368838	-0.362135	-0.059516	1.039785	-0.334279	-0.743987	7.593451	-2.478876	0.000000	0.000000	6.366603	-4.415411	-11.736150	41.329959	-31.409282	-28.246177	52.712554	68.490142	-8.546903	17.080354	-10.284370	-23.689092	17.456911	76.507354	88.591010	3.262871	16.490095
4.704545	4.276956	-3.942327	106.497160	0.146403	0.977289	0.571453	3.765468	-4.205213	-14.541167	19.944256	0.348093	32.637368	4.279581	0.000000	4.877770	1.219248	-1.806410	17.616593	0.307468	31.327899	15.099441	0.000000	-0.107317	0.680837	-0.542949	-0.199299	0.905513	-0.576883	-0.176311	1.655386	-0.576883	-0.122653	1.655386	-0.475080	-0.099655	1.388362	-0.441146	-0.061321	1.054616	-0.407212	-0.766556	7.701760	-3.019718	0.000000	0.000000	6.558278	-4.219354	-10.760342	42.130894	-30.887711	-26.765915	52.623244	68.911791	-8.673710	18.458221	-10.751925	-23.197092	16.733777	76.253936	88.401900	4.660734	17.500323
4.727273	4.365255	-3.920626	106.427363	0.147015	0.977701	0.572361	3.935078	-4.154598	-14.731945	20.133107	0.351389	32.635375	4.611961	0.000000	4.898526	1.114615	-1.750560	17.536695	0.306073	31.202467	15.070143	0.000000	-0.107472	0.690495	-0.624915	-0.199587	0.918359	-0.663973	-0.176566	1.678871	-0.663973	-0.122830	1.678871	-0.546801	-0.099799	1.408058	-0.507744	-0.061410	1.069577	-0.468686	-0.767664	7.811022	-3.475592	0.000000	0.000000	6.768491	-4.084579	-9.769664	42.618824	-30.233825	-25.482155	53.005728	68.301961	-8.508269	19.267631	-11.231666	-22.705665	16.028413	76.067306	88.205273	5.897374	18.349328
4.750000	4.426384	-3.925266	106.345076	0.147611	0.978056	0.573086	4.120957	-4.141423	-14.917795	20.334575	0.354905	32.642576	4.955148	0.000000	4.916368	1.046461	-1.693651	17.439979	0.304385	31.077087	15.005561	0.000000	-0.105197	0.698344	-0.696597	-0.195362	0.928797	-0.740135	-0.172829	1.697953	-0.740135	-0.120230	1.697953	-0.609523	-0.097686	1.424063	-0.565985	-0.060110	1.081735	-0.522448	-0.751415	7.899806	-3.874265	0.000000	0.000000	6.980690	-3.997640	-8.799836	42.851197	-29.478314	-24.386526	53.709178	66.658232	-8.037445	19.479988	-11.718020	-22.235415	15.339484	75.945505	88.011643	6.889993	18.925373
4.772727	4.446420	-3.954604	106.230492	0.148258	0.978366	0.573625	4.321152	-4.165714	-15.032986	20.546266	0.358600	32.643330	5.236489	0.000000	4.918948	1.020827	-1.679555	17.314356	0.302193	30.937580	14.931702	0.000000	-0.102807	0.701403	-0.751099	-0.190922	0.932866	-0.798042	-0.168901	1.705392	-0.798042	-0.117498	1.705392	-0.657211	-0.095466	1.430301	-0.610268	-0.058744	1.086473	-0.563324	-0.734338	7.934413	-4.177385	0.000000	0.000000	7.184563	-3.922564	-7.906111	42.874753	-28.661575	-23.520478	54.588148	63.903844	-7.339137	19.256561	-12.184668	-21.803456	14.688057	75.888979	87.824419	7.565012	19.220844
4.795455	4.446621	-4.000699	106.106387	0.148915	0.978622	0.574037	4.519764	-4.205344	-15.112197	20.748088	0.362122	32.635931	5.476530	0.000000	4.907993	1.016460	-1.691383	17.159991	0.299498	30.791426	14.852210	0.000000	-0.100721	0.702313	-0.799193	-0.187050	0.934076	-0.849142	-0.165475	1.707603	-0.849142	-0.115115	1.707603	-0.699293	-0.093530	1.432156	-0.649344	-0.057552	1.087882	-0.599394	-0.719443	7.944701	-4.444869	0.000000	0.000000	7.361082	-3.843412	-7.032487	42.825048	-27.848007	-22.792658	55.393194	60.301730	-6.453407	18.783239	-12.641650	-21.412741	14.080767	75.876884	87.638960	7.834499	19.164559
4.818182	4.421822	-4.063084	105.989882	0.149581	0.978807	0.574347	4.714844	-4.275145	-15.212811	20.950718	0.365659	32.634895	5.729013	0.000000	4.894387	1.038228	-1.725115	16.993917	0.296600	30.644566	14.771159	0.000000	-0.098498	0.699344	-0.839000	-0.182920	0.930127	-0.891438	-0.161822	1.700384	-0.891438	-0.112573	1.700384	-0.734125	-0.091465	1.426101	-0.681688	-0.056282	1.083283	-0.629250	-0.703560	7.911114	-4.666268	0.000000	0.000000	7.471699	-3.749531	-6.265244	42.731298	-27.068962	-22.320466	56.036382	56.628740	-5.565923	18.312489	-13.073420	-21.061490	13.507448	75.902180	87.463627	7.773497	18.830851
4.840909	4.375597	-4.131839	105.887105	0.150225	0.978924	0.574594	4.894409	-4.363291	-15.305354	21.143639	0.369026	32.632591	5.943962	0.000000	4.870279	1.082254	-1.768991	16.811119	0.293409	30.502750	14.700869	0.000000	-0.096601	0.693426	-0.866920	-0.179397	0.922256	-0.921103	-0.158705	1.685996	-0.921103	-0.110405	1.685996	-0.758555	-0.089703	1.414034	-0.704373	-0.055198	1.074117	-0.650190	-0.690009	7.844172	-4.821551	0.000000	0.000000	7.484788	-3.635919	-5.623706	42.628068	-26.411662	-22.027255	56.475277	53.401060	-4.854599	18.009756	-13.437078	-20.781866	13.053761	75.927119	87.303506	7.404108	18.187925
4.863636	4.321034	-4.210891	105.792136	0.150826	0.978937	0.574823	5.074788	-4.457023	-15.359482	21.332723	0.372326	32.630894	6.094327	0.000000	4.855309	1.140048	-1.816545	16.631755	0.290279	30.387741	14.631441	0.000000	-0.094450	0.686051	-0.885076	-0.175403	0.912447	-0.940393	-0.155172	1.668064	-0.940393	-0.107947	1.668064	-0.774441	-0.087706	1.398994	-0.719124	-0.053969	1.062692	-0.663807	-0.674648	7.760742	-4.922526	0.000000	0.000000	7.424235	-3.513066	-5.113693	42.584410	-25.904968	-21.739385	56.639648	50.790986	-4.344021	17.803633	-13.756153	-20.551912	12.655977	75.984379	87.176894	6.868318	17.483823
4.886364	4.255969	-4.296423	105.686563	0.151410	0.978879	0.575033	5.253267	-4.556511	-15.358768	21.511562	0.375448	32.623353	6.190871	0.000000	4.833980	1.209954	-1.877790	16.435240	0.286849	30.281590	14.589679	0.000000	-0.092667	0.677094	-0.880791	-0.172092	0.900535	-0.935841	-0.152243	1.646287	-0.935841	-0.105909	1.646287	-0.770692	-0.086051	1.380730	-0.715643	-0.052950	1.048819	-0.660594	-0.661913	7.659424	-4.898697	0.000000	0.000000	7.302611	-3.388760	-4.761302	42.549277	-25.566152	-21.517243	56.614082	48.508395	-3.945669	17.687848	-13.967919	-20.411838	12.439030	76.031088	87.069784	6.157883	16.686879
